<svg xmlns="http://www.w3.org/2000/svg" version="1.1" xmlns:xlink="http://www.w3.org/1999/xlink" xmlns:svgjs="http://svgjs.dev/svgjs" width="1500" height="1500" viewBox="0 0 1500 1500"><rect width="1500" height="1500" fill="#ffffff"></rect><g transform="matrix(0.6666666666666666,0,0,0.6666666666666666,249.39393939393938,641.8360023807592)"><svg viewBox="0 0 396 86" data-background-color="#ffffff" preserveAspectRatio="xMidYMid meet" height="325" width="1500" xmlns="http://www.w3.org/2000/svg" xmlns:xlink="http://www.w3.org/1999/xlink"><g id="tight-bounds" transform="matrix(1,0,0,1,0.2400000000000091,-0.06721325267059797)"><svg viewBox="0 0 395.52 86.1344265053412" height="86.1344265053412" width="395.52"><g><svg viewBox="0 0 554.6694967250783 120.79323169604785" height="86.1344265053412" width="395.52"><g><rect width="6.247548479196996" height="120.79323169604785" x="136.54710929510378" y="0" fill="#000000" opacity="1" stroke-width="0" stroke="transparent" fill-opacity="1" class="rect-qz-0" data-fill-palette-color="primary" rx="1%" id="qz-0" data-palette-color="#50a060"></rect></g><g transform="matrix(1,0,0,1,159.14949672507828,0.3004806758608112)"><svg viewBox="0 0 395.52 120.19227034432623" height="120.19227034432623" width="395.52"><g id="textblocktransform"><svg viewBox="0 0 395.52 120.19227034432623" height="120.19227034432623" width="395.52" id="textblock"><g><svg viewBox="0 0 395.52 69.27785522788203" height="69.27785522788203" width="395.52"><g transform="matrix(1,0,0,1,0,0)"><svg width="395.52" viewBox="4.2 -38.1 279.72 49" height="69.27785522788203" data-palette-color="#50a060"><path d="M10.65 0L4.2 0 4.2-34.85 13.55-34.85Q17.1-34.85 20-33.77 22.9-32.7 24.63-30.04 26.35-27.38 26.35-22.65L26.35-22.65Q26.35-19.23 25.05-16.19 23.75-13.15 20.96-11.25 18.18-9.35 13.75-9.35L13.75-9.35 10.65-9.35 10.65 0ZM13.15-29.8L13.15-29.8 10.65-29.8 10.65-14.6 13.3-14.6Q16.6-14.6 18.25-16.57 19.9-18.55 19.9-22.3L19.9-22.3Q19.9-26.13 18.4-27.96 16.9-29.8 13.15-29.8ZM36.05 0.7L36.05 0.7Q33.75 0.7 32.23-0.33 30.72-1.35 29.98-3.05 29.25-4.75 29.25-6.8L29.25-6.8Q29.25-7.95 29.84-9.33 30.42-10.7 31.92-11.95 33.42-13.2 36.15-14 38.87-14.8 43.15-14.8L43.15-14.8 43.15-15.95Q43.15-17.8 42.26-19.03 41.37-20.25 38.7-20.25L38.7-20.25Q36.75-20.25 34.88-19.59 33.02-18.93 32.15-17.95L32.15-17.95 30.15-22.75Q31.65-23.78 34.16-24.64 36.67-25.5 39.75-25.5L39.75-25.5Q43.45-25.5 45.5-24.38 47.55-23.25 48.37-21.19 49.2-19.13 49.2-16.35L49.2-16.35 49.2 0 43.85 0 43.4-3.55Q40.8 0.7 36.05 0.7ZM38.7-4.1L38.7-4.1Q39.82-4.1 41.11-5.01 42.4-5.93 43.15-7.35L43.15-7.35 43.15-10.9Q42.9-10.95 42.61-10.95 42.32-10.95 41.95-10.95L41.95-10.95Q40.57-10.95 39.06-10.64 37.55-10.33 36.5-9.55 35.45-8.78 35.45-7.4L35.45-7.4Q35.45-5.6 36.25-4.85 37.05-4.1 38.7-4.1ZM61.9 0L55.65 0 55.65-24.9 61.3-24.9 61.6-20.5Q62-21.48 62.83-22.58 63.67-23.68 65.16-24.44 66.65-25.2 69-25.2L69-25.2Q69.72-25.2 70.27-25.1 70.82-25 71.3-24.8L71.3-24.8 69.9-18.25Q69.1-19.05 67.45-19.05L67.45-19.05Q65.52-19.05 64.3-18.26 63.07-17.48 62.48-16.5 61.9-15.53 61.9-15L61.9-15 61.9 0ZM79.99 0.7L79.99 0.7Q77.69 0.7 76.18-0.33 74.67-1.35 73.93-3.05 73.19-4.75 73.19-6.8L73.19-6.8Q73.19-7.95 73.78-9.33 74.37-10.7 75.87-11.95 77.37-13.2 80.09-14 82.82-14.8 87.09-14.8L87.09-14.8 87.09-15.95Q87.09-17.8 86.21-19.03 85.32-20.25 82.64-20.25L82.64-20.25Q80.69-20.25 78.83-19.59 76.97-18.93 76.09-17.95L76.09-17.95 74.09-22.75Q75.59-23.78 78.11-24.64 80.62-25.5 83.69-25.5L83.69-25.5Q87.39-25.5 89.44-24.38 91.49-23.25 92.32-21.19 93.14-19.13 93.14-16.35L93.14-16.35 93.14 0 87.79 0 87.34-3.55Q84.74 0.7 79.99 0.7ZM82.64-4.1L82.64-4.1Q83.77-4.1 85.06-5.01 86.34-5.93 87.09-7.35L87.09-7.35 87.09-10.9Q86.84-10.95 86.56-10.95 86.27-10.95 85.89-10.95L85.89-10.95Q84.52-10.95 83.01-10.64 81.49-10.33 80.44-9.55 79.39-8.78 79.39-7.4L79.39-7.4Q79.39-5.6 80.19-4.85 80.99-4.1 82.64-4.1ZM105.94 0L100.04 0 100.04-38 105.94-38 105.94-19.35 105.74-13.5 113.39-24.9 120.49-24.9 111.79-13.45 121.34 0 113.79 0 105.74-12.05 105.94-5.95 105.94 0ZM132.34 0.6L132.34 0.6Q128.56 0.6 126.78-1.81 124.99-4.23 124.99-8.45L124.99-8.45 124.99-24.9 131.24-24.9 131.24-9Q131.24-6.95 131.99-5.65 132.74-4.35 134.54-4.35L134.54-4.35Q136.31-4.35 137.5-5.65 138.69-6.95 138.69-9L138.69-9 138.69-24.9 144.94-24.9 144.94 0 139.29 0 139.16-3.23Q138.24-1.75 136.65-0.58 135.06 0.6 132.34 0.6ZM169.19 0L149.29 0 160.56-20.15 151.39-20.15 151.39-24.9 170.19-24.9 158.94-4.55 169.19-4.55 169.19 0ZM190.83 0.45L190.83 0.45Q188.11 0.45 186.37-0.06 184.63-0.58 183.67-1.24 182.71-1.9 182.33-2.35L182.33-2.35 184.18-7.1Q185.28-6.2 186.99-5.33 188.71-4.45 190.98-4.45L190.98-4.45Q192.76-4.45 193.47-5.18 194.18-5.9 194.18-6.75L194.18-6.75Q194.18-7.93 192.56-8.88 190.93-9.83 188.78-10.75L188.78-10.75Q187.51-11.3 186.08-12.15 184.66-13 183.64-14.4 182.63-15.8 182.63-18L182.63-18Q182.63-21.38 185.09-23.39 187.56-25.4 192.08-25.4L192.08-25.4Q194.98-25.4 196.99-24.54 199.01-23.68 199.68-23L199.68-23 197.98-18.5Q197.01-19.25 195.51-19.93 194.01-20.6 192.28-20.6L192.28-20.6Q190.38-20.6 189.63-20.1 188.88-19.6 188.88-18.5L188.88-18.5Q188.88-17.28 190.22-16.49 191.56-15.7 193.43-14.95L193.43-14.95Q196.56-13.73 198.47-11.94 200.38-10.15 200.38-7.4L200.38-7.4Q200.38-5.35 199.43-3.56 198.48-1.78 196.38-0.66 194.28 0.45 190.83 0.45ZM212.23 0L206.08 0 206.08-38.1 211.98-38.1 211.98-25.5 211.85-21.75Q212.85-23.2 214.65-24.35 216.45-25.5 219.43-25.5L219.43-25.5Q223.18-25.5 225.03-23.1 226.88-20.7 226.88-16.45L226.88-16.45 226.88 0 220.48 0 220.48-15.8Q220.48-17.88 219.49-19.16 218.5-20.45 216.73-20.45L216.73-20.45Q214.98-20.45 213.6-19.16 212.23-17.88 212.23-15.8L212.23-15.8 212.23 0ZM244.38 0.5L244.38 0.5Q238.88 0.5 235.88-2.95 232.88-6.4 232.88-12.5L232.88-12.5Q232.88-18.65 235.98-22.08 239.08-25.5 244.58-25.5L244.58-25.5Q250.1-25.5 252.99-21.96 255.88-18.43 255.88-12.5L255.88-12.5Q255.88-6.58 252.89-3.04 249.9 0.5 244.38 0.5ZM244.48-4.5L244.48-4.5Q249.23-4.5 249.23-12.5L249.23-12.5Q249.23-20.55 244.48-20.55L244.48-20.55Q242.13-20.55 240.83-18.69 239.53-16.82 239.53-12.5L239.53-12.5Q239.53-8.2 240.83-6.35 242.13-4.5 244.48-4.5ZM267.82 10.9L261.77 10.9 261.77-24.9 267.72-24.9 267.72-24.1 267.22-20.6Q267.52-22.03 268.59-23.15 269.65-24.28 271.19-24.91 272.72-25.55 274.42-25.55L274.42-25.55Q279.37-25.55 281.65-22.09 283.92-18.63 283.92-12.8L283.92-12.8Q283.92-6.28 281.16-2.79 278.4 0.7 273.92 0.7L273.92 0.7Q271.15 0.7 269.49-1.03 267.82-2.75 267.22-4.95L267.22-4.95 267.82-0.25 267.82 10.9ZM272.47-4.25L272.47-4.25Q273.67-4.25 274.8-5.06 275.92-5.88 276.65-7.7 277.37-9.53 277.37-12.55L277.37-12.55Q277.37-16.75 275.94-18.6 274.5-20.45 272.57-20.45L272.57-20.45Q270.25-20.45 269.04-18.06 267.82-15.68 267.82-12.15L267.82-12.15Q267.82-8.63 269.06-6.44 270.3-4.25 272.47-4.25Z" opacity="1" transform="matrix(1,0,0,1,0,0)" fill="#000000" class="wordmark-text-0" data-fill-palette-color="primary" id="text-0"></path></svg></g></svg></g><g transform="matrix(1,0,0,1,0,85.6326941786595)"><svg viewBox="0 0 232.209792 34.55957616566672" height="34.55957616566672" width="232.209792"><g transform="matrix(1,0,0,1,0,0)"><svg width="232.209792" viewBox="1.7 -38.15 258.33 38.449999999999996" height="34.55957616566672" data-palette-color="#c5e4cb"><path d="M15.45 0L11.15 0 1.7-36.8 5.8-36.8 13.7-5.45 22.8-36.8 26.8-36.8 35.85-5.45 43.75-36.8 47.85-36.8 38.4 0 34.1 0 24.8-31.25 15.45 0ZM57.3 0L53.35 0 53.35-38.15 57.3-38.15 57.3-23.75Q59.15-25.1 61.72-26.13 64.3-27.15 67.1-27.15L67.1-27.15Q69.9-27.15 71.72-25.95 73.55-24.75 74.42-22.7 75.3-20.65 75.3-18.15L75.3-18.15 75.3 0 71.35 0 71.35-17.75Q71.35-19.45 70.67-20.75 70-22.05 68.75-22.8 67.5-23.55 65.75-23.55L65.75-23.55Q64.1-23.55 62.7-23.23 61.3-22.9 60-22.33 58.7-21.75 57.3-20.95L57.3-20.95 57.3 0ZM92.95 0.3L92.95 0.3Q88.75 0.3 86.32-0.95 83.9-2.2 82.85-5.2 81.8-8.2 81.8-13.4L81.8-13.4Q81.8-18.7 82.87-21.68 83.95-24.65 86.4-25.85 88.85-27.05 93-27.05L93-27.05Q96.55-27.05 98.77-26.25 101-25.45 102.07-23.53 103.15-21.6 103.15-18.2L103.15-18.2Q103.15-15.85 102.22-14.43 101.3-13 99.57-12.38 97.85-11.75 95.5-11.75L95.5-11.75 85.75-11.75Q85.8-8.5 86.45-6.53 87.1-4.55 88.82-3.68 90.55-2.8 93.9-2.8L93.9-2.8 102.5-2.8 102.5-0.4Q100.2-0.1 98 0.1 95.8 0.3 92.95 0.3ZM85.7-14.35L85.7-14.35 95.2-14.35Q97.45-14.35 98.52-15.18 99.6-16 99.6-18.15L99.6-18.15Q99.6-20.45 98.92-21.73 98.25-23 96.82-23.53 95.4-24.05 93-24.05L93-24.05Q90.2-24.05 88.6-23.23 87-22.4 86.35-20.3 85.7-18.2 85.7-14.35ZM113.74 0L109.79 0 109.79-26.7 112.89-26.7 113.74-23.75Q115.64-25.1 118.19-26.13 120.74-27.15 123.49-27.15L123.49-27.15Q126.44-27.15 128.24-25.9 130.04-24.65 130.89-22.6 131.74-20.55 131.74-18.15L131.74-18.15 131.74 0 127.79 0 127.79-17.7Q127.79-19.4 127.12-20.73 126.44-22.05 125.22-22.8 123.99-23.55 122.19-23.55L122.19-23.55Q120.54-23.55 119.12-23.23 117.69-22.9 116.42-22.33 115.14-21.75 113.74-20.95L113.74-20.95 113.74 0ZM149.39 0.3L149.39 0.3Q145.19 0.3 142.77-0.95 140.34-2.2 139.29-5.2 138.24-8.2 138.24-13.4L138.24-13.4Q138.24-18.7 139.32-21.68 140.39-24.65 142.84-25.85 145.29-27.05 149.44-27.05L149.44-27.05Q152.99-27.05 155.22-26.25 157.44-25.45 158.52-23.53 159.59-21.6 159.59-18.2L159.59-18.2Q159.59-15.85 158.67-14.43 157.74-13 156.02-12.38 154.29-11.75 151.94-11.75L151.94-11.75 142.19-11.75Q142.24-8.5 142.89-6.53 143.54-4.55 145.27-3.68 146.99-2.8 150.34-2.8L150.34-2.8 158.94-2.8 158.94-0.4Q156.64-0.1 154.44 0.1 152.24 0.3 149.39 0.3ZM142.14-14.35L142.14-14.35 151.64-14.35Q153.89-14.35 154.97-15.18 156.04-16 156.04-18.15L156.04-18.15Q156.04-20.45 155.37-21.73 154.69-23 153.27-23.53 151.84-24.05 149.44-24.05L149.44-24.05Q146.64-24.05 145.04-23.23 143.44-22.4 142.79-20.3 142.14-18.2 142.14-14.35ZM177.44 0L172.94 0 162.89-26.7 166.94-26.7 175.24-3.7 183.79-26.7 187.79-26.7 177.44 0ZM201.74 0.3L201.74 0.3Q197.54 0.3 195.11-0.95 192.69-2.2 191.64-5.2 190.59-8.2 190.59-13.4L190.59-13.4Q190.59-18.7 191.66-21.68 192.74-24.65 195.19-25.85 197.64-27.05 201.79-27.05L201.79-27.05Q205.34-27.05 207.56-26.25 209.79-25.45 210.86-23.53 211.94-21.6 211.94-18.2L211.94-18.2Q211.94-15.85 211.01-14.43 210.09-13 208.36-12.38 206.64-11.75 204.29-11.75L204.29-11.75 194.54-11.75Q194.59-8.5 195.24-6.53 195.89-4.55 197.61-3.68 199.34-2.8 202.69-2.8L202.69-2.8 211.29-2.8 211.29-0.4Q208.99-0.1 206.79 0.1 204.59 0.3 201.74 0.3ZM194.49-14.35L194.49-14.35 203.99-14.35Q206.24-14.35 207.31-15.18 208.39-16 208.39-18.15L208.39-18.15Q208.39-20.45 207.71-21.73 207.04-23 205.61-23.53 204.19-24.05 201.79-24.05L201.79-24.05Q198.99-24.05 197.39-23.23 195.79-22.4 195.14-20.3 194.49-18.2 194.49-14.35ZM222.53 0L218.58 0 218.58-26.7 221.58-26.7 222.53-22.05Q224.33-24.2 226.56-25.6 228.78-27 231.68-27L231.68-27Q232.38-27 233.01-26.95 233.63-26.9 234.18-26.75L234.18-26.75 234.18-22.7Q233.53-22.8 232.78-22.88 232.03-22.95 231.28-22.95L231.28-22.95Q229.43-22.95 227.98-22.5 226.53-22.05 225.23-21.15 223.93-20.25 222.53-18.95L222.53-18.95 222.53 0ZM239.23 0.05L237.03 0.05Q236.23 0.05 236.23-0.75L236.23-0.75 236.23-4.75Q236.23-5.55 237.03-5.55L237.03-5.55 239.23-5.55Q240.03-5.55 240.03-4.75L240.03-4.75 240.03-0.75Q240.03-0.35 239.81-0.15 239.58 0.05 239.23 0.05L239.23 0.05ZM249.23 0.05L247.03 0.05Q246.23 0.05 246.23-0.75L246.23-0.75 246.23-4.75Q246.23-5.55 247.03-5.55L247.03-5.55 249.23-5.55Q250.03-5.55 250.03-4.75L250.03-4.75 250.03-0.75Q250.03-0.35 249.8-0.15 249.58 0.05 249.23 0.05L249.23 0.05ZM259.23 0.05L257.03 0.05Q256.23 0.05 256.23-0.75L256.23-0.75 256.23-4.75Q256.23-5.55 257.03-5.55L257.03-5.55 259.23-5.55Q260.03-5.55 260.03-4.75L260.03-4.75 260.03-0.75Q260.03-0.35 259.8-0.15 259.58 0.05 259.23 0.05L259.23 0.05Z" opacity="1" transform="matrix(1,0,0,1,0,0)" fill="#000000" class="slogan-text-1" data-fill-palette-color="secondary" id="text-1"></path></svg></g></svg></g></svg></g></svg></g><g transform="matrix(1,0,0,1,0,0.3004806758608112)"><svg viewBox="0 0 120.1922703443263 120.19227034432623" height="120.19227034432623" width="120.1922703443263"><g><svg xmlns="http://www.w3.org/2000/svg" xmlns:xlink="http://www.w3.org/1999/xlink" version="1.1" x="0" y="0" viewBox="25.700000000000003 25.7 44.500000000000014 44.499999999999986" enable-background="new 0 0 96 96" xml:space="preserve" height="120.19227034432623" width="120.1922703443263" class="icon-icon-0" data-fill-palette-color="accent" id="icon-0"><path d="M31.6 25.7c-5.6 0-5.9 5.3-5.9 5.6v38.9c19.9 0 35.2 0 38.6 0 5.6 0 5.9-5.3 5.9-5.6V25.7H31.6zM54.6 38.9c1.7 0 3 1.3 3 3s-1.3 3-3 3-3-1.3-3-3S53 38.9 54.6 38.9zM41.4 38.9c1.7 0 3 1.3 3 3s-1.3 3-3 3-3-1.3-3-3S39.7 38.9 41.4 38.9zM60.7 54.5c-3 2.8-7.6 4.4-12.5 4.4s-9.7-1.7-12.7-4.5c-0.7-0.7-0.7-1.9 0-2.6 0.7-0.7 1.9-0.7 2.6 0 2.2 2.2 6 3.5 10.1 3.5 4 0 7.7-1.3 10-3.4 0.7-0.7 1.9-0.6 2.6 0.1C61.5 52.6 61.5 53.8 60.7 54.5z" fill="#000000" data-fill-palette-color="accent"></path></svg></g></svg></g></svg></g><defs></defs></svg><rect width="395.52" height="86.1344265053412" fill="none" stroke="none" visibility="hidden"></rect></g></svg></g></svg>